<?xml version="1.0" encoding="utf-8"?>
<svg viewBox="0 0 700 700" xmlns="http://www.w3.org/2000/svg">
  <g>
    <path d="m342.58 154.4c0-4.0938 3.3242-7.4219 7.4219-7.4219 4.0938 0 7.4219 3.3242 7.4219 7.4219 0 4.0938-3.3242 7.4219-7.4219 7.4219-4.1133-0.019531-7.4219-3.3281-7.4219-7.4219z"/>
    <path d="m357.4 217.88c0 4.0938-3.3242 7.4219-7.4219 7.4219-4.0938 0-7.4219-3.3242-7.4219-7.4219 0-4.0938 3.3242-7.4219 7.4219-7.4219 4.0977 0.019531 7.4219 3.3281 7.4219 7.4219z"/>
    <path d="M 246.49 229.09 C 246.49 224.996 249.814 221.668 253.912 221.668 C 258.006 221.668 261.334 224.992 261.334 229.09 C 261.334 233.184 258.01 236.512 253.912 236.512 C 249.814 236.508 246.49 233.184 246.49 229.09 Z"/>
    <path d="m436.45 229.09c0-4.0938 3.3242-7.4219 7.4219-7.4219 4.0938 0 7.4219 3.3242 7.4219 7.4219 0 4.0938-3.3242 7.4219-7.4219 7.4219-4.0977-0.003906-7.4219-3.3281-7.4219-7.4219z"/>
    <path d="m357.4 281.36c0 4.0938-3.3242 7.4219-7.4219 7.4219-4.0938 0-7.4219-3.3242-7.4219-7.4219 0-4.0938 3.3242-7.4219 7.4219-7.4219 4.0977 0.003906 7.4219 3.3281 7.4219 7.4219z"/>
    <path d="m357.4 344.84c0 4.0938-3.3242 7.4219-7.4219 7.4219-4.0938 0-7.4219-3.3242-7.4219-7.4219 0-4.0938 3.3242-7.4219 7.4219-7.4219 4.0977 0.019532 7.4219 3.3281 7.4219 7.4219z"/>
    <path d="m357.4 408.33c0 4.0938-3.3242 7.4219-7.4219 7.4219-4.0938 0-7.4219-3.3242-7.4219-7.4219 0-4.0938 3.3242-7.4219 7.4219-7.4219 4.0977 0 7.4219 3.3281 7.4219 7.4219z"/>
    <path d="m357.4 471.8c0 4.0938-3.3242 7.4219-7.4219 7.4219-4.0938 0-7.4219-3.3242-7.4219-7.4219 0-4.0938 3.3242-7.4219 7.4219-7.4219 4.0977 0.019532 7.4219 3.3242 7.4219 7.4219z"/>
    <path d="m601.93 332.73-43.891-204.61c-3.9219-14.316-14.629-25.305-28.629-29.891-6.2656-5.8086-26.793-20.773-83.266-37.273-3.3438-19.688-20.004-29.82-30.676-32.637-1.1914-0.33203-2.3789-0.31641-3.5352-0.14062-0.55859-0.12109-1.1016-0.35156-1.6992-0.35156h-119.23c-0.62891 0-1.1914 0.22656-1.7852 0.36719-1.1719-0.15625-2.3789-0.19141-3.6055 0.14062-10.57 2.7812-27.055 12.738-30.625 32.078-62.141 18.113-81.969 34.598-86.344 38.973-12.652 5.0742-22.363 15.418-26.145 29.227l-43.75 204.12c-1.6641 7.7695-2.5195 15.801-2.5195 23.836v170.26c0 4.8281 3.9219 8.75 8.75 8.75h51.031c4.8281 0 8.75-3.9219 8.75-8.75v-33.934l10.184-30.152c-0.35156 6.668-0.69922 13.301-1.0859 20.23l-0.96484 16.469c-0.085938 1.2773 0.14062 2.5547 0.61328 3.7617 3.0625 7.6641 22.996 32.391 151.59 32.391 1.4336 0 2.8867-0.015626 4.3398-0.015626 0.55859 0 1.0508-0.22656 1.5742-0.31641 0.55859 0.12109 1.0859 0.33203 1.6992 0.33203h34.648c0.47266 0 0.875-0.19141 1.3281-0.26172 0.42188 0.070312 0.78906 0.24609 1.2266 0.24609 1.4531 0 2.9062 0.015626 4.3398 0.015626 128.61 0 148.43-24.762 151.45-32.445 0.47266-1.1719 0.66406-2.4492 0.59375-3.7109l-0.96094-16.484c-0.24609-4.2695-0.4375-8.2969-0.66406-12.461 0.78906-2.1875 0.68359-4.5664-0.35156-6.668-0.10547-2.0469-0.22656-4.1836-0.33203-6.2109l11.898 35.281v33.934c0 4.8281 3.9219 8.75 8.75 8.75h51.031c4.8281 0 8.75-3.9219 8.75-8.75v-170.26c0.019532-8.0312-0.83984-16.066-2.4844-23.836zm-319.93-101.2-25.777 8.75c-1.4883 0.52344-3.168 0.47266-4.6562-0.015626l-25.707-8.7344-0.015625-16.137h56.156zm0 18.48v3.5703c0 3.2383-1.8711 12.547-3.6562 20.23-10.852 1.5742-39.219 1.5938-49.402 0.21094-1.4375-7.5078-3.0312-16.977-3.0469-20.441v-3.5703l20.039 6.8086c2.5547 0.89062 5.2852 1.3281 7.9805 1.3281 2.6953 0 5.4062-0.4375 7.9609-1.3125zm8.75-52.113h-95.168c-1.4688-27.16-3.5508-47.023-5.6328-61.355 10.148-5.6367 38.113-20.074 71.941-29.574l6.4922 27.914c0.73438 3.1328 3.168 5.5469 6.2656 6.4062 0.73438 0.19141 1.5039 0.29688 2.2578 0.29688 2.3984 0 4.7422-0.98047 6.4219-2.7461 0.070312-0.050781 6.4922-6.6328 26.164-15.312 2.4688-1.0859 8.2266-2.6602 14.453-3.168v77.543zm58.605-91.176c-4.2344-1.7148-7.8047-2.7656-10.445-3.2188l-17.379-28.422h58.031l-17.273 28.262c-3.7461 0.75391-8.2422 1.8203-12.934 3.3789zm40.234-48.02c-1.2266-0.64844-2.5547-1.1211-4.043-1.1211h-71.504c-1.0156 0-1.9609 0.26172-2.8711 0.57812l-7.8242-12.793h94.379zm34.598 82.949c0.71875 0 1.4531-0.085937 2.1719-0.28125 3.168-0.80469 5.6016-3.3086 6.3516-6.4922l6.4922-27.895c33.531 9.4844 60.426 23.906 70.07 29.488-2.082 14.332-4.1641 34.23-5.6523 61.426h-127.52v-77.664c6.668 0.38672 12.879 2.1367 15.469 3.2734 19.617 8.6641 26.059 15.227 26.074 15.227 1.6992 1.8672 4.0977 2.918 6.5469 2.918zm47.773 89.879-25.777 8.75c-1.4883 0.52344-3.168 0.47266-4.6562-0.015626l-25.707-8.7344-0.015625-16.137h56.156zm0 18.48v3.5703c0 3.2383-1.8711 12.547-3.6562 20.23-10.852 1.5742-39.219 1.5938-49.402 0.21094-1.4336-7.5078-3.0273-16.957-3.0469-20.422v-3.5703l20.039 6.8086c2.5547 0.89062 5.2852 1.3281 7.9805 1.3281 2.6953 0 5.4062-0.4375 7.9609-1.3125zm-95.848-34.613h22.172l0.050781 38.238c0.015625 7.332 3.6758 25.426 4.4102 28.98 0.47266 2.3789 1.9062 4.4258 3.9883 5.6875 4.6367 2.8516 20.738 4.2695 36.82 4.2695 15.996 0 31.988-1.3984 36.629-4.2344 1.9609-1.207 3.3594-3.1328 3.9375-5.3555 0.89062-3.5859 5.3555-21.891 5.3555-29.418v-38.184h13.336c-2.1875 54.441-1.9961 133.86 4.0234 248.61-9.1875 5.6719-41.266 19.984-130.71 22.191l0.003906-270.78zm136.36-97.215c-13.281-7.3164-38.484-19.672-69.301-28.262l2.3086-9.9219c0.070313-0.31641 0.050782-0.57813 0.10547-0.89063 43.348 13.055 62.387 24.605 69.176 29.68-0.66016 2.3438-1.4492 5.457-2.2891 9.3945zm-84.051-42.137-9.7305 41.844c-4.8281-3.0117-11.375-6.5625-20.055-10.395-3.0781-1.3477-8.8906-3.2383-15.785-4.1992l34.004-55.633c6.5273 3.5312 15.484 11.582 11.566 28.383zm-144.18-28.387 34.02 55.633c-6.9141 0.99609-12.738 2.8516-15.82 4.2188-8.6641 3.832-15.207 7.3672-20.055 10.379l-9.7305-41.844c-3.8828-16.73 4.9531-24.801 11.586-28.387zm-28.805 30.941c0.10547 0.48828 0.070312 0.91016 0.17578 1.418l2.3086 9.9219c-31.219 8.6641-57.469 21.176-71.137 28.422-0.83984-3.9375-1.6094-7.0508-2.2734-9.4141 7.2969-5.3594 27.195-17.188 70.926-30.348zm-108.17 439.48h-33.527v-17.867h33.531zm2.4688-35.387h-35.996v-126.12c0-6.8086 0.71875-13.578 2.1367-20.176l43.641-203.65c1.5586-5.7031 5.0391-10.43 9.5898-13.859 2.8516 11.953 7.1914 37.555 9.5391 87.414 0 0.12109-0.070313 0.22656-0.070313 0.33203 0 0.19141 0.085938 0.35156 0.10547 0.54297 2.0117 43.453 2.5039 105.16-0.83984 192.24zm45.691-85.801c2.957-79.555 2.7109-138.39 0.99609-181.49h11.918l0.050781 38.238c0.015625 7.332 3.6758 25.426 4.4102 28.98 0.47266 2.3789 1.9062 4.4258 3.9883 5.6875 4.6367 2.8516 20.738 4.2695 36.82 4.2695 15.996 0 31.988-1.3984 36.629-4.2344 1.9609-1.207 3.3594-3.1328 3.9375-5.3555 0.89062-3.5859 5.3555-21.891 5.3555-29.418v-38.184h24.449v270.73c-98.156-2.6953-126.54-20.09-131.46-23.816 1.1016-21.07 1.9961-40.879 2.7109-59.605l0.22656-0.69922c0.58203-1.7188 0.44141-3.4688-0.03125-5.0977zm-4.0938 87.043c0.035156-0.69922 0.070313-1.3477 0.10547-2.0469 16.906 8.3125 54.199 19.602 132.53 21.719v14.438c-103.79-0.015625-129.01-17.012-133.4-20.648zm150.13 11.184v-364.61c1.5039-2.4492 8.6094-5.7734 17.148-8.2266v395.82h-17.148zm34.648 22.941v-14.387c75.898-1.8359 113.66-12.25 131.74-20.547 0.015625 0.26172 0.035156 0.52344 0.035156 0.78906l0.75391 13.125c-5.3906 4.6758-31.586 20.812-132.53 21.02zm210.82 0.019531h-33.531v-17.867h33.531zm0-35.387h-35.996l-29.137-86.309c-0.12109-0.38672-0.40234-0.64844-0.57812-1.0156-3.168-84.875-2.6758-145.37-0.69922-188.12 0.015624-0.21094 0.12109-0.38672 0.12109-0.61328 0-0.14062-0.070312-0.24609-0.070312-0.38672 2.4141-51.344 6.9492-76.93 9.7656-88.359 5.1797 3.4297 9.0664 8.4688 10.691 14.367l43.766 204.12c1.418 6.5977 2.1367 13.387 2.1367 20.176z"/>
  </g>
</svg>